<svg id="svg" version="1.1" xmlns="http://www.w3.org/2000/svg" xmlns:xlink="http://www.w3.org/1999/xlink" width="400" height="400" viewBox="0, 0, 400,400"><g id="svgg"><path id="path0" d="M183.398 148.836 C 173.929 149.430,163.166 150.818,157.324 152.196 L 154.688 152.819 154.694 176.116 C 154.704 209.068,153.012 204.618,172.406 222.702 C 185.392 234.810,186.169 235.156,200.391 235.156 C 214.435 235.156,217.031 234.144,227.190 224.703 C 248.372 205.019,246.970 208.279,247.165 178.290 L 247.307 156.385 245.821 155.363 C 239.478 150.998,205.515 147.446,183.398 148.836 M251.047 166.271 C 250.901 166.417,250.781 171.077,250.781 176.628 C 250.781 187.938,250.799 187.996,253.294 185.081 C 258.539 178.954,259.006 176.051,255.551 171.053 C 253.331 167.842,251.461 165.857,251.047 166.271 M148.971 168.134 C 142.611 175.369,142.547 178.031,148.574 184.641 C 151.246 187.571,151.172 187.795,151.172 176.781 C 151.172 165.823,151.134 165.674,148.971 168.134 M183.240 168.386 C 184.647 169.388,185.015 176.771,183.729 178.192 C 182.682 179.348,168.924 179.268,167.435 178.097 C 165.820 176.826,165.852 169.819,167.480 168.486 C 169.072 167.183,181.441 167.104,183.240 168.386 M230.221 168.388 C 231.220 169.174,231.250 169.322,231.250 173.444 C 231.250 179.147,231.642 178.906,222.356 178.906 C 213.223 178.906,213.281 178.943,213.281 173.242 C 213.281 167.556,213.247 167.578,222.195 167.578 C 228.682 167.578,229.267 167.637,230.221 168.388 M220.738 214.887 C 221.322 215.809,221.132 216.726,220.226 217.361 C 218.866 218.313,181.066 218.277,180.011 217.322 C 179.048 216.450,179.112 215.412,180.176 214.644 C 181.399 213.761,220.172 213.993,220.738 214.887 M315.595 278.486 C 314.138 279.942,314.068 281.682,315.412 283.026 C 316.511 284.125,317.274 284.236,317.969 283.398 C 318.677 282.545,319.798 282.679,321.254 283.789 C 322.891 285.037,323.151 285.020,325.234 283.524 L 326.963 282.282 328.191 283.190 C 330.960 285.238,332.829 280.840,330.275 278.287 C 329.356 277.368,329.171 277.344,323.035 277.344 L 316.737 277.344 315.595 278.486 M57.520 287.316 C 56.736 287.868,56.641 288.265,56.641 290.993 L 56.641 294.052 60.840 294.218 C 67.045 294.464,67.209 294.329,66.559 289.500 L 66.211 286.914 62.305 286.806 C 59.241 286.721,58.209 286.831,57.520 287.316 M93.085 287.029 C 92.425 287.449,92.043 290.256,92.360 292.365 L 92.626 294.141 97.485 294.141 L 102.344 294.141 102.344 291.076 C 102.344 286.940,102.082 286.717,97.235 286.725 C 95.211 286.728,93.343 286.865,93.085 287.029 " stroke="none" fill="#add9da" fill-rule="evenodd"></path><path id="path1" d="M33.228 126.235 C 32.608 126.901,32.422 127.617,32.422 129.339 C 32.422 132.624,32.558 132.813,34.942 132.813 C 37.142 132.813,37.940 133.341,38.479 135.156 C 38.639 135.693,39.714 137.131,40.869 138.350 C 43.713 141.353,43.884 143.817,41.443 146.638 C 40.603 147.608,39.719 148.999,39.478 149.729 C 39.237 150.459,38.646 151.236,38.164 151.456 C 37.683 151.675,36.677 152.601,35.930 153.513 C 35.182 154.426,33.137 156.634,31.386 158.420 C 28.689 161.172,28.161 161.926,27.933 163.354 C 27.771 164.368,27.017 165.973,26.039 167.383 L 24.414 169.727 24.465 174.683 L 24.517 179.639 25.908 181.336 C 27.433 183.198,28.125 184.700,28.125 186.153 C 28.125 186.852,28.458 187.238,29.399 187.631 C 30.100 187.924,31.423 189.135,32.339 190.322 C 33.876 192.314,34.148 192.494,35.866 192.660 C 37.551 192.821,38.002 193.104,40.606 195.632 C 42.624 197.591,43.880 198.500,44.808 198.674 C 45.537 198.811,46.871 199.542,47.773 200.299 C 48.676 201.056,49.941 201.901,50.586 202.176 C 51.230 202.452,52.541 203.481,53.499 204.464 C 55.629 206.649,56.123 206.673,57.961 204.688 C 60.155 202.316,62.036 202.425,64.648 205.078 C 65.707 206.152,66.849 207.031,67.188 207.031 C 67.526 207.031,68.668 206.152,69.727 205.078 L 71.650 203.125 74.369 203.125 C 77.072 203.125,77.101 203.137,79.333 205.078 C 80.568 206.152,81.701 207.031,81.850 207.031 C 81.999 207.031,83.135 206.152,84.375 205.078 L 86.630 203.125 89.839 203.125 L 93.049 203.125 95.054 201.323 C 97.418 199.197,98.256 198.828,100.723 198.828 C 102.532 198.828,102.610 198.776,104.784 196.114 C 106.607 193.883,107.265 193.351,108.481 193.125 C 109.303 192.972,110.217 192.486,110.536 192.030 C 112.123 189.769,114.264 187.866,115.639 187.496 C 116.979 187.135,117.147 186.942,117.395 185.476 C 117.590 184.323,118.164 183.325,119.381 182.023 L 121.094 180.192 121.094 174.090 L 121.094 167.987 120.060 167.309 C 118.441 166.249,116.797 163.719,116.797 162.290 C 116.797 161.218,116.464 160.765,114.613 159.321 C 110.740 156.299,110.547 156.057,110.541 154.217 C 110.533 152.083,110.423 151.944,107.682 150.620 C 104.410 149.040,103.905 148.038,103.925 143.164 C 103.956 135.300,105.462 132.813,110.190 132.813 C 113.086 132.813,113.265 132.631,113.276 129.663 C 113.286 126.931,107.386 124.356,104.102 125.658 C 103.275 125.986,100.391 130.233,100.391 131.121 C 100.391 132.504,99.526 134.305,97.710 136.708 C 96.382 138.465,96.094 139.154,96.094 140.573 L 96.094 142.300 92.641 142.039 C 90.742 141.896,88.610 141.613,87.905 141.410 C 83.138 140.043,65.568 139.944,62.086 141.265 C 60.782 141.760,58.996 141.932,54.883 141.958 L 49.414 141.992 49.211 139.970 C 49.051 138.386,48.783 137.772,47.969 137.132 C 45.819 135.441,45.133 133.722,44.922 129.492 L 44.727 125.586 39.381 125.477 C 34.293 125.374,33.996 125.411,33.228 126.235 M169.922 173.231 L 169.922 175.391 175.411 175.391 L 180.900 175.391 180.782 173.340 L 180.664 171.289 175.293 171.180 L 169.922 171.072 169.922 173.231 M217.057 171.354 C 216.688 171.723,216.733 175.305,217.110 175.538 C 217.282 175.644,219.743 175.628,222.579 175.502 L 227.734 175.273 227.734 173.183 L 227.734 171.094 222.526 171.094 C 219.661 171.094,217.201 171.211,217.057 171.354 M55.201 183.254 L 56.023 184.673 54.945 186.086 L 53.866 187.500 47.473 187.500 L 41.079 187.500 40.266 186.184 C 39.253 184.546,39.254 184.190,40.267 182.766 L 41.082 181.622 47.730 181.729 L 54.379 181.836 55.201 183.254 M104.659 182.670 C 105.682 183.970,105.682 184.931,104.661 186.365 L 103.853 187.500 97.650 187.500 L 91.446 187.500 90.422 186.158 C 89.538 184.999,89.463 184.693,89.867 183.912 C 91.041 181.643,91.050 181.641,97.688 181.641 L 103.850 181.641 104.659 182.670 M305.049 193.589 C 304.749 193.951,303.749 194.571,302.826 194.966 L 301.150 195.685 301.258 201.063 L 301.367 206.440 302.763 207.097 C 303.531 207.458,304.639 208.382,305.225 209.150 C 306.617 210.976,307.343 210.912,309.333 208.789 C 311.907 206.043,314.449 206.163,317.611 209.180 C 318.850 210.361,320.196 211.328,320.602 211.328 C 321.008 211.328,321.885 211.943,322.551 212.695 C 324.269 214.635,325.826 214.581,328.125 212.500 C 329.075 211.641,330.006 210.938,330.195 210.938 C 330.385 210.938,331.387 210.059,332.422 208.984 C 335.261 206.038,337.752 206.270,340.901 209.773 C 343.451 212.609,344.720 212.537,347.921 209.375 L 350.294 207.031 352.955 207.031 L 355.617 207.031 357.422 208.984 C 358.699 210.367,359.524 210.938,360.245 210.938 C 360.965 210.938,361.624 211.394,362.500 212.500 C 364.646 215.209,365.801 214.880,370.417 210.247 L 374.219 206.431 374.219 201.325 C 374.219 195.649,374.042 195.313,371.072 195.313 C 370.315 195.313,369.484 194.901,368.670 194.123 C 367.545 193.048,367.218 192.945,365.256 193.049 L 363.086 193.164 362.967 195.008 L 362.849 196.851 367.850 196.961 C 372.705 197.067,372.855 197.096,372.977 197.951 L 373.102 198.832 338.602 198.733 C 304.395 198.634,304.102 198.626,304.102 197.852 C 304.102 197.158,304.401 197.057,306.759 196.954 L 309.416 196.838 309.298 195.001 L 309.180 193.164 307.388 193.048 C 306.080 192.963,305.448 193.109,305.049 193.589 M323.828 194.922 L 323.828 196.875 327.148 196.875 L 330.469 196.875 330.469 195.540 C 330.469 193.086,330.306 192.969,326.911 192.969 L 323.828 192.969 323.828 194.922 M341.797 194.922 L 341.797 196.875 343.945 196.875 L 346.094 196.875 346.094 194.922 L 346.094 192.969 343.945 192.969 L 341.797 192.969 341.797 194.922 M71.756 246.918 C 69.657 248.139,69.965 253.516,72.133 253.516 C 74.927 253.516,75.391 254.598,75.391 261.125 C 75.391 267.691,75.807 267.087,70.703 267.936 C 69.092 268.204,67.196 268.673,66.491 268.977 C 65.785 269.282,64.994 269.531,64.733 269.532 C 62.327 269.533,55.487 274.569,53.347 277.915 C 49.562 283.831,48.850 286.256,48.838 293.262 L 48.828 298.828 41.048 298.828 C 31.466 298.828,32.031 298.633,32.031 301.949 C 32.031 304.505,32.077 304.630,33.374 305.619 C 34.113 306.183,35.107 307.338,35.584 308.186 C 36.560 309.922,36.896 310.123,39.648 310.620 C 44.438 311.484,47.807 311.672,58.887 311.695 L 70.703 311.719 70.703 313.624 C 70.703 315.627,71.046 316.140,72.656 316.543 C 73.294 316.703,74.210 317.671,75.295 319.332 L 76.958 321.875 79.476 321.875 L 81.993 321.875 83.409 319.343 C 84.624 317.170,85.036 316.754,86.313 316.410 C 87.897 315.984,88.266 315.340,88.276 312.988 L 88.281 311.719 100.684 311.718 C 110.277 311.718,113.750 311.582,116.016 311.120 C 117.627 310.792,119.628 310.414,120.462 310.281 C 121.627 310.095,122.125 309.764,122.610 308.851 C 122.958 308.198,123.998 306.834,124.921 305.822 C 126.663 303.911,127.270 302.098,126.798 300.217 L 126.548 299.219 119.573 299.219 C 115.736 299.219,112.048 299.109,111.377 298.975 L 110.156 298.730 110.156 292.198 L 110.156 285.665 108.740 282.969 C 106.715 279.116,105.016 277.010,101.649 274.178 C 97.190 270.428,93.959 269.133,85.161 267.569 C 83.767 267.321,82.492 267.036,82.329 266.935 C 82.165 266.833,82.031 264.033,82.031 260.711 L 82.031 254.671 81.025 254.212 C 79.947 253.721,78.906 252.072,78.906 250.854 C 78.906 248.531,73.808 245.725,71.756 246.918 M68.680 284.601 L 70.313 285.998 70.313 291.046 C 70.313 297.989,70.731 297.656,62.008 297.656 C 53.039 297.656,53.125 297.720,53.125 291.079 L 53.125 286.487 54.590 285.088 C 56.510 283.253,56.443 283.270,62.137 283.234 L 67.047 283.203 68.680 284.601 M104.110 284.815 L 105.859 286.428 105.859 291.031 L 105.859 295.634 104.658 296.645 C 103.473 297.642,103.367 297.656,97.114 297.656 C 88.747 297.656,89.063 297.915,89.063 291.046 L 89.063 286.028 90.626 284.616 L 92.190 283.203 97.275 283.203 L 102.361 283.203 104.110 284.815 " stroke="none" fill="#de725e" fill-rule="evenodd"></path><path id="path2" d="M242.402 88.176 C 242.285 88.481,242.370 88.605,242.600 88.463 C 242.822 88.326,243.236 88.407,243.520 88.643 C 243.902 88.960,244.155 88.930,244.489 88.527 C 244.856 88.085,244.721 87.950,243.775 87.811 C 243.018 87.700,242.536 87.828,242.402 88.176 M194.531 95.720 C 187.616 96.252,180.544 98.244,176.384 100.834 C 175.086 101.642,172.881 103.006,171.484 103.864 C 170.088 104.722,168.478 105.830,167.907 106.325 C 167.337 106.821,166.511 107.478,166.073 107.786 C 165.635 108.094,165.352 108.468,165.444 108.617 C 165.536 108.767,164.995 109.544,164.240 110.344 C 163.485 111.144,162.602 112.352,162.278 113.028 C 161.954 113.705,161.359 114.873,160.955 115.625 C 160.552 116.377,160.105 117.607,159.961 118.359 C 159.818 119.111,159.431 120.299,159.102 120.998 C 158.733 121.782,158.603 122.680,158.765 123.341 C 159.154 124.940,159.032 126.509,158.427 127.680 C 158.130 128.254,157.826 129.336,157.752 130.084 L 157.617 131.445 159.961 131.390 C 161.250 131.359,164.854 131.043,167.969 130.689 C 179.010 129.431,181.962 129.260,193.359 129.221 C 206.867 129.174,224.262 130.563,233.984 132.466 C 236.790 133.015,244.534 134.733,245.411 135.000 C 245.985 135.176,246.040 135.065,245.750 134.304 C 245.330 133.199,245.313 133.094,245.313 131.695 C 245.313 131.081,244.841 129.894,244.265 129.058 C 243.689 128.223,243.094 126.748,242.943 125.781 C 242.792 124.814,242.476 123.496,242.241 122.852 C 242.005 122.207,241.717 120.889,241.600 119.922 C 241.008 115.027,233.232 108.523,223.344 104.651 C 215.465 101.565,214.244 101.000,213.184 99.951 C 211.980 98.760,211.791 97.483,212.740 96.951 C 214.311 96.072,201.353 95.196,194.531 95.720 M124.609 113.706 C 124.609 113.902,124.780 114.063,124.988 114.063 C 125.196 114.063,125.265 114.326,125.141 114.648 C 125.006 115.002,125.139 115.234,125.479 115.234 C 126.274 115.234,126.073 113.565,125.263 113.446 C 124.904 113.394,124.609 113.511,124.609 113.706 M332.182 115.167 C 334.101 117.609,333.444 123.561,330.897 126.798 C 330.481 127.327,330.037 127.594,329.912 127.390 C 329.786 127.187,329.903 126.915,330.173 126.787 C 330.443 126.659,330.261 126.629,329.768 126.721 C 329.275 126.813,328.349 126.739,327.710 126.555 C 326.897 126.322,326.627 126.350,326.811 126.648 C 326.962 126.893,326.894 126.963,326.652 126.813 C 326.247 126.563,326.533 124.824,327.141 123.841 C 327.278 123.619,327.297 123.438,327.183 123.438 C 327.070 123.438,326.378 124.360,325.647 125.488 C 324.915 126.616,323.679 128.145,322.900 128.885 C 322.122 129.626,321.487 130.592,321.491 131.034 C 321.496 131.676,321.670 131.563,322.359 130.469 C 323.322 128.940,324.257 128.103,324.698 128.375 C 324.859 128.475,324.872 128.239,324.727 127.852 C 324.494 127.230,324.541 127.212,325.131 127.692 C 325.722 128.173,325.768 128.154,325.527 127.526 C 325.311 126.964,325.397 126.872,325.941 127.081 C 326.318 127.225,326.700 127.344,326.790 127.344 C 326.880 127.344,326.953 127.530,326.953 127.757 C 326.953 127.985,326.777 128.062,326.563 127.930 C 326.348 127.797,326.172 127.864,326.172 128.079 C 326.172 128.765,326.863 128.924,327.105 128.293 C 327.468 127.347,328.043 127.988,327.830 129.101 C 327.678 129.895,327.531 130.005,327.101 129.648 C 326.226 128.922,326.487 129.587,327.417 130.454 C 327.888 130.892,328.107 131.253,327.906 131.256 C 327.704 131.259,327.767 131.407,328.046 131.583 C 328.444 131.836,328.408 132.023,327.873 132.456 C 327.435 132.812,327.298 132.835,327.487 132.520 C 327.652 132.245,327.589 132.031,327.344 132.031 C 327.104 132.031,327.032 131.828,327.186 131.580 C 327.360 131.299,327.293 131.235,327.007 131.412 C 326.756 131.567,326.652 131.860,326.776 132.061 C 326.901 132.263,326.737 132.694,326.412 133.019 C 325.941 133.490,325.843 134.489,325.929 137.932 C 326.047 142.677,326.086 142.754,328.607 143.179 C 329.418 143.317,329.982 143.589,329.861 143.785 C 329.740 143.980,329.785 144.141,329.961 144.141 C 330.137 144.141,330.507 144.503,330.783 144.945 C 331.252 145.696,331.230 145.720,330.439 145.297 C 329.957 145.039,329.699 145.014,329.838 145.240 C 329.973 145.458,329.862 145.725,329.592 145.834 C 329.212 145.988,329.217 146.039,329.613 146.063 C 329.894 146.080,330.023 146.257,329.899 146.457 C 329.776 146.657,329.844 146.926,330.051 147.054 C 330.263 147.185,330.358 146.925,330.269 146.459 C 330.150 145.841,330.262 145.690,330.712 145.863 C 331.043 145.990,331.574 146.094,331.891 146.094 C 332.208 146.094,332.361 146.268,332.229 146.480 C 332.086 146.712,332.272 146.761,332.695 146.602 C 333.337 146.361,333.347 146.404,332.813 147.095 C 332.272 147.793,332.279 147.811,332.904 147.321 C 333.538 146.824,334.656 148.238,334.451 149.277 C 334.424 149.417,334.835 149.640,335.365 149.773 C 336.357 150.022,336.617 150.557,335.948 150.970 C 335.739 151.099,335.264 150.851,334.893 150.417 C 334.286 149.709,334.153 149.689,333.564 150.222 C 332.978 150.753,332.884 150.750,332.670 150.192 C 332.531 149.831,332.593 149.669,332.817 149.807 C 333.354 150.139,333.303 149.084,332.756 148.537 C 332.509 148.291,331.762 148.171,331.095 148.271 C 330.116 148.418,330.033 148.381,330.664 148.082 C 331.460 147.704,330.480 147.435,329.004 147.627 C 328.735 147.662,328.516 147.507,328.516 147.283 C 328.516 147.058,328.721 146.875,328.971 146.875 C 329.222 146.875,329.314 146.762,329.176 146.624 C 329.038 146.486,328.669 146.585,328.357 146.845 C 327.701 147.389,325.014 147.260,324.922 146.680 C 324.781 145.785,323.599 145.128,322.032 145.074 C 320.364 145.015,320.002 145.292,319.689 146.864 C 319.626 147.181,319.304 147.638,318.973 147.879 C 318.642 148.121,318.473 148.421,318.596 148.544 C 319.101 149.049,318.319 150.307,317.615 150.123 C 316.545 149.843,314.253 152.015,314.176 153.381 C 314.123 154.326,314.164 154.375,314.451 153.711 C 314.780 152.950,314.790 152.951,314.816 153.763 C 314.851 154.821,314.487 154.890,308.984 154.880 C 305.334 154.873,304.515 154.768,304.612 154.323 C 304.707 153.889,304.614 153.871,304.172 154.239 C 303.714 154.619,303.491 154.448,302.945 153.296 C 302.170 151.664,302.217 151.568,303.852 151.453 C 305.899 151.309,305.220 150.781,302.988 150.781 C 300.784 150.781,299.057 149.853,296.905 147.514 C 296.092 146.631,295.638 146.484,293.714 146.484 C 290.792 146.484,290.346 146.688,289.461 148.421 C 288.885 149.551,288.202 150.104,286.366 150.928 C 285.071 151.509,283.907 152.154,283.779 152.360 C 283.496 152.818,283.502 152.818,285.033 152.379 C 286.201 152.044,287.213 152.761,286.533 153.441 C 286.420 153.554,286.328 153.443,286.328 153.194 C 286.328 152.946,285.902 152.778,285.382 152.821 C 284.624 152.884,284.506 153.031,284.789 153.559 C 285.042 154.031,284.968 154.285,284.531 154.453 C 283.662 154.787,283.645 154.772,283.871 153.906 C 283.985 153.469,283.883 153.125,283.639 153.125 C 283.399 153.125,283.203 153.364,283.203 153.656 C 283.203 153.949,282.764 154.835,282.227 155.627 C 280.851 157.654,280.980 158.720,282.874 160.965 C 285.066 163.565,286.333 163.523,287.688 160.806 C 288.477 159.222,289.679 158.959,295.599 159.073 L 301.159 159.180 302.366 160.645 C 304.001 162.629,305.559 162.659,307.368 160.742 C 308.579 159.458,308.808 159.375,311.146 159.375 C 314.561 159.375,315.068 159.055,317.970 155.072 C 320.775 151.220,320.528 151.334,325.586 151.542 C 327.558 151.623,329.913 153.517,332.291 156.934 C 333.167 158.192,333.509 158.064,336.230 155.456 C 339.567 152.258,339.677 152.575,332.900 145.874 C 330.510 143.511,330.512 142.081,332.909 139.519 C 334.477 137.842,336.667 134.375,336.158 134.375 C 336.056 134.375,336.228 133.650,336.541 132.763 C 336.854 131.877,337.109 129.804,337.109 128.157 L 337.109 125.163 335.352 123.438 C 333.611 121.729,333.594 121.687,333.594 119.065 C 333.594 116.637,333.494 116.313,332.378 115.143 L 331.161 113.867 332.182 115.167 M247.656 131.807 C 247.656 134.614,247.555 135.125,246.973 135.278 C 246.458 135.412,246.507 135.467,247.168 135.502 C 248.018 135.545,248.047 135.430,248.047 132.031 C 248.047 130.098,247.959 128.516,247.852 128.516 C 247.744 128.516,247.656 129.997,247.656 131.807 M180.859 133.621 C 179.033 133.816,174.727 134.247,171.289 134.580 C 167.852 134.914,164.160 135.339,163.086 135.525 C 162.012 135.711,159.814 136.077,158.203 136.338 C 152.567 137.250,152.527 137.270,151.610 139.554 C 150.454 142.434,150.653 145.166,152.082 146.033 C 152.656 146.381,153.125 146.885,153.125 147.153 C 153.125 148.126,155.201 148.106,163.366 147.055 C 182.024 144.655,196.260 144.096,211.914 145.150 C 214.957 145.355,227.927 146.720,230.273 147.082 C 230.918 147.181,232.588 147.447,233.984 147.672 C 235.381 147.896,237.007 148.156,237.598 148.249 C 238.793 148.437,238.751 148.556,238.740 144.998 C 238.736 143.644,238.533 142.295,238.289 142.001 C 238.044 141.707,237.635 140.618,237.379 139.581 C 236.723 136.920,234.952 136.456,216.602 134.138 C 210.703 133.393,186.316 133.040,180.859 133.621 M291.113 134.863 C 291.356 135.593,292.446 135.673,292.712 134.980 C 292.884 134.531,292.687 134.375,291.947 134.375 C 291.324 134.375,291.011 134.558,291.113 134.863 M321.224 137.335 C 321.094 137.673,320.547 138.118,320.010 138.322 C 319.472 138.526,319.128 138.790,319.245 138.907 C 319.629 139.290,321.745 137.954,321.745 137.328 C 321.745 136.547,321.525 136.550,321.224 137.335 M316.484 139.141 C 316.227 139.398,316.016 139.851,316.016 140.147 C 316.016 140.443,313.599 143.033,310.645 145.904 C 306.751 149.686,305.508 151.107,306.125 151.066 C 306.594 151.035,306.891 150.870,306.786 150.700 C 306.607 150.410,307.214 150.228,307.939 150.354 C 308.116 150.385,308.164 150.253,308.045 150.061 C 307.927 149.868,308.265 149.205,308.797 148.586 C 309.329 147.967,309.765 147.616,309.765 147.807 C 309.765 147.997,310.158 147.645,310.637 147.025 C 311.117 146.406,311.644 145.840,311.809 145.768 C 311.974 145.697,312.109 145.408,312.109 145.126 C 312.109 144.478,313.277 143.999,313.293 144.641 C 313.300 144.903,313.500 144.766,313.738 144.336 C 314.684 142.632,315.313 142.160,315.977 142.658 C 316.479 143.035,316.515 143.028,316.160 142.625 C 315.530 141.911,316.299 139.629,317.340 139.124 C 317.914 138.846,317.980 138.717,317.559 138.698 C 317.226 138.684,316.742 138.883,316.484 139.141 M293.945 147.732 C 293.516 147.976,293.035 148.366,292.877 148.599 C 292.719 148.833,292.587 148.864,292.584 148.670 C 292.581 148.475,292.227 148.635,291.797 149.023 C 291.281 149.490,291.016 149.563,291.016 149.237 C 291.016 148.956,290.760 148.843,290.421 148.973 C 289.935 149.159,289.902 149.059,290.239 148.429 C 290.466 148.004,290.866 147.659,291.127 147.662 C 291.458 147.666,291.441 147.770,291.072 148.004 C 290.702 148.238,290.673 148.421,290.974 148.607 C 291.539 148.956,292.188 148.540,292.188 147.829 C 292.188 147.451,292.607 147.270,293.457 147.278 C 294.604 147.288,294.651 147.332,293.945 147.732 M296.261 147.879 C 296.951 148.569,297.079 149.000,296.484 148.633 C 296.270 148.500,296.094 148.578,296.094 148.805 C 296.094 149.033,296.445 149.219,296.875 149.219 C 297.305 149.219,297.656 149.424,297.656 149.674 C 297.656 149.925,297.763 150.024,297.893 149.893 C 298.287 149.500,299.137 150.541,298.908 151.136 C 298.789 151.447,298.867 151.584,299.087 151.448 C 299.303 151.315,299.479 151.462,299.479 151.775 C 299.479 152.257,298.863 152.453,297.798 152.310 C 297.660 152.292,297.421 152.483,297.266 152.734 C 297.067 153.056,296.914 153.009,296.746 152.572 C 296.610 152.217,296.712 151.951,296.985 151.947 C 297.295 151.943,297.263 151.816,296.894 151.582 C 296.582 151.385,296.159 151.327,295.954 151.453 C 295.745 151.583,295.711 151.475,295.878 151.206 C 296.040 150.943,296.413 150.820,296.707 150.933 C 297.000 151.046,297.361 150.942,297.509 150.704 C 297.683 150.421,297.597 150.381,297.260 150.590 C 296.888 150.819,296.810 150.733,296.982 150.285 C 297.152 149.842,297.009 149.677,296.489 149.716 C 296.087 149.747,295.789 149.933,295.828 150.130 C 295.867 150.327,295.701 150.561,295.460 150.651 C 295.179 150.755,295.009 150.175,294.986 149.039 C 294.948 147.162,295.260 146.878,296.261 147.879 M333.080 147.930 C 332.971 148.107,333.113 148.567,333.396 148.953 C 333.678 149.340,333.999 149.512,334.108 149.335 C 334.217 149.159,334.075 148.699,333.792 148.312 C 333.509 147.926,333.189 147.754,333.080 147.930 M183.691 148.707 C 184.067 148.805,184.683 148.805,185.059 148.707 C 185.435 148.609,185.127 148.528,184.375 148.528 C 183.623 148.528,183.315 148.609,183.691 148.707 M205.181 148.718 C 205.775 148.808,206.654 148.805,207.134 148.712 C 207.615 148.620,207.129 148.546,206.055 148.549 C 204.980 148.552,204.587 148.628,205.181 148.718 M290.234 150.023 C 290.234 150.251,290.029 150.310,289.777 150.154 C 289.470 149.964,289.402 150.085,289.570 150.522 C 289.718 150.908,289.626 151.174,289.343 151.178 C 289.042 151.182,289.083 151.323,289.453 151.563 C 289.775 151.771,289.853 151.944,289.625 151.947 C 289.398 151.950,288.871 151.689,288.454 151.366 C 287.918 150.952,287.881 150.843,288.328 150.998 C 288.746 151.142,289.031 150.945,289.170 150.413 C 289.385 149.590,290.234 149.279,290.234 150.023 M294.141 153.493 C 294.141 153.953,293.379 154.446,293.099 154.167 C 292.819 153.887,293.312 153.125,293.773 153.125 C 293.975 153.125,294.141 153.290,294.141 153.493 M296.094 153.711 C 295.826 154.033,295.483 154.297,295.330 154.297 C 295.177 154.297,295.052 154.033,295.052 153.711 C 295.052 153.389,295.396 153.125,295.816 153.125 C 296.451 153.125,296.498 153.224,296.094 153.711 M154.475 170.898 C 154.475 179.492,154.527 182.952,154.589 178.587 C 154.652 174.222,154.652 167.191,154.589 162.962 C 154.526 158.733,154.475 162.305,154.475 170.898 M247.447 176.367 C 247.447 187.109,247.497 191.448,247.558 186.008 C 247.620 180.568,247.620 171.779,247.558 166.477 C 247.497 161.174,247.447 165.625,247.447 176.367 M264.351 159.034 C 263.445 159.541,263.488 160.156,264.430 160.156 C 265.320 160.156,265.684 159.712,265.302 159.093 C 265.117 158.795,264.812 158.776,264.351 159.034 M258.457 163.548 C 258.030 163.975,258.173 164.869,258.761 165.458 C 259.378 166.074,260.156 166.201,260.156 165.685 C 260.156 165.503,260.552 165.163,261.035 164.930 C 261.796 164.563,261.816 164.502,261.183 164.480 C 260.558 164.457,260.527 164.362,260.969 163.830 C 261.421 163.284,261.366 163.224,260.528 163.351 C 259.944 163.439,259.611 163.720,259.674 164.072 C 259.751 164.505,259.644 164.480,259.244 163.971 C 258.951 163.598,258.597 163.408,258.457 163.548 M307.163 174.316 C 306.577 175.255,306.748 175.587,307.862 175.668 C 308.623 175.723,308.984 175.566,308.984 175.180 C 308.984 174.866,309.204 174.607,309.473 174.603 C 310.227 174.594,308.912 173.841,308.129 173.834 C 307.765 173.831,307.331 174.048,307.163 174.316 M148.828 185.352 C 149.557 186.104,150.241 186.719,150.349 186.719 C 150.456 186.719,149.948 186.104,149.219 185.352 C 148.490 184.600,147.806 183.984,147.698 183.984 C 147.591 183.984,148.099 184.600,148.828 185.352 M154.388 188.672 C 154.388 189.424,154.468 189.731,154.566 189.355 C 154.664 188.979,154.664 188.364,154.566 187.988 C 154.468 187.612,154.388 187.920,154.388 188.672 M154.403 193.750 C 154.403 194.717,154.479 195.112,154.573 194.629 C 154.666 194.146,154.666 193.354,154.573 192.871 C 154.479 192.388,154.403 192.783,154.403 193.750 M239.823 212.793 L 238.477 214.258 239.941 212.912 C 241.305 211.659,241.586 211.328,241.288 211.328 C 241.222 211.328,240.563 211.987,239.823 212.793 M150.000 215.430 C 150.000 216.266,150.190 216.795,150.488 216.791 C 151.042 216.784,152.334 216.031,151.808 216.022 C 151.620 216.018,151.675 215.764,151.931 215.457 C 152.301 215.011,152.237 214.814,151.613 214.480 C 150.332 213.795,150.000 213.990,150.000 215.430 M253.754 215.458 C 253.415 216.342,254.234 217.252,255.239 217.109 C 256.539 216.923,256.363 215.075,255.030 214.920 C 254.353 214.842,253.921 215.024,253.754 215.458 M189.773 217.871 C 194.783 217.933,202.869 217.933,207.742 217.871 C 212.615 217.809,208.516 217.758,198.633 217.758 C 188.750 217.758,184.763 217.809,189.773 217.871 M231.421 220.801 L 230.273 222.070 231.543 220.923 C 232.241 220.292,232.813 219.721,232.813 219.653 C 232.813 219.352,232.490 219.617,231.421 220.801 M89.576 225.633 C 89.199 226.615,90.492 227.246,91.107 226.380 C 91.567 225.733,91.459 225.495,90.601 225.271 C 90.101 225.140,89.713 225.277,89.576 225.633 M291.797 230.388 C 291.797 230.595,292.046 230.971,292.351 231.224 C 292.797 231.594,292.886 231.550,292.806 231.000 C 292.701 230.284,291.797 229.736,291.797 230.388 M238.751 241.846 C 235.737 247.377,225.668 252.494,216.211 253.299 C 214.707 253.428,211.455 253.708,208.984 253.923 C 206.514 254.138,202.646 254.406,200.391 254.518 C 194.962 254.788,193.750 254.997,193.750 255.664 C 193.750 256.417,191.498 256.785,188.765 256.478 C 185.443 256.106,181.137 255.421,180.469 255.158 C 180.146 255.031,179.707 254.914,179.492 254.897 C 179.277 254.880,178.246 254.464,177.199 253.972 C 176.153 253.480,175.063 253.167,174.777 253.277 C 174.490 253.387,173.819 252.958,173.286 252.324 C 172.752 251.691,172.031 251.172,171.682 251.172 C 171.333 251.172,171.156 250.996,171.289 250.781 C 171.422 250.566,171.253 250.391,170.913 250.391 C 170.574 250.391,170.096 249.951,169.851 249.414 C 169.602 248.868,169.077 248.438,168.659 248.438 C 167.847 248.438,166.797 247.572,166.797 246.903 C 166.797 246.673,166.467 246.155,166.064 245.752 C 165.662 245.349,165.258 244.798,165.168 244.528 C 164.024 241.094,149.495 259.474,147.643 266.700 C 147.354 267.827,146.981 268.750,146.813 268.750 C 146.646 268.750,146.619 269.058,146.754 269.434 C 146.889 269.810,146.851 269.982,146.670 269.818 C 146.299 269.480,145.313 271.574,145.313 272.701 C 145.313 273.106,145.181 273.438,145.020 273.439 C 144.215 273.443,143.293 277.084,143.269 280.356 C 143.237 284.496,143.539 285.693,144.548 285.429 C 145.010 285.308,145.316 285.472,145.395 285.882 C 145.634 287.121,148.047 286.727,148.047 285.449 C 148.047 284.858,148.233 284.375,148.461 284.375 C 148.688 284.375,148.767 284.201,148.636 283.989 C 148.504 283.776,148.633 283.693,148.922 283.804 C 149.610 284.068,150.826 280.644,150.536 279.261 C 150.401 278.619,150.550 278.021,150.943 277.629 C 151.446 277.126,151.563 276.042,151.563 271.877 C 151.563 266.165,151.831 265.234,153.482 265.234 C 155.548 265.234,155.499 264.568,155.316 290.285 C 155.222 303.470,155.143 315.303,155.139 316.580 C 155.128 320.216,155.070 320.177,160.826 320.408 C 166.648 320.641,167.081 320.770,167.505 322.405 L 167.823 323.633 176.880 323.738 L 185.938 323.843 185.938 322.738 C 185.938 320.708,186.738 320.134,189.585 320.125 L 192.136 320.117 192.371 318.870 C 192.755 316.825,193.604 316.728,212.272 316.595 C 220.884 316.534,228.225 316.467,228.585 316.445 C 229.078 316.416,229.306 315.880,229.506 314.281 C 229.864 311.414,230.177 311.329,240.390 311.323 C 244.924 311.320,249.031 311.211,249.519 311.080 L 250.405 310.843 250.300 290.968 C 250.242 280.037,250.338 271.094,250.511 271.094 C 250.685 271.094,250.719 270.918,250.586 270.703 C 250.453 270.488,250.609 270.313,250.931 270.313 C 251.254 270.313,251.748 269.991,252.029 269.598 C 253.295 267.824,257.742 266.981,258.590 268.353 C 258.822 268.729,258.951 268.730,259.180 268.359 C 259.404 267.996,259.551 268.009,259.808 268.415 C 260.458 269.441,260.198 266.745,259.245 262.581 C 259.181 262.303,258.877 261.773,258.568 261.403 C 258.260 261.034,257.804 260.294,257.555 259.760 C 257.306 259.226,256.647 257.832,256.090 256.662 C 255.534 255.491,255.073 254.261,255.066 253.927 C 255.056 253.426,254.985 253.439,254.656 254.004 C 254.023 255.092,253.658 254.878,250.123 251.350 C 248.283 249.515,246.141 247.685,245.362 247.285 C 243.248 246.197,240.733 244.278,240.044 243.227 C 239.321 242.124,239.625 240.975,240.560 241.272 C 241.118 241.450,241.128 241.420,240.625 241.058 C 239.730 240.415,239.472 240.523,238.751 241.846 M315.137 245.979 C 315.620 246.072,316.411 246.072,316.895 245.979 C 317.378 245.886,316.982 245.810,316.016 245.810 C 315.049 245.810,314.653 245.886,315.137 245.979 M329.985 245.979 C 330.471 246.073,331.174 246.069,331.548 245.972 C 331.921 245.874,331.523 245.797,330.664 245.802 C 329.805 245.806,329.499 245.886,329.985 245.979 M250.000 248.242 C 251.167 249.424,252.210 250.391,252.317 250.391 C 252.424 250.391,251.558 249.424,250.391 248.242 C 249.224 247.061,248.181 246.094,248.074 246.094 C 247.966 246.094,248.833 247.061,250.000 248.242 M100.051 262.634 C 99.833 262.897,99.790 263.332,99.956 263.601 C 100.320 264.190,101.563 263.792,101.563 263.086 C 101.563 262.374,100.524 262.064,100.051 262.634 M354.409 275.586 C 354.412 276.660,354.487 277.053,354.577 276.459 C 354.667 275.866,354.665 274.987,354.572 274.506 C 354.479 274.026,354.406 274.512,354.409 275.586 M102.475 291.016 C 102.475 292.627,102.544 293.286,102.628 292.480 C 102.713 291.675,102.713 290.356,102.628 289.551 C 102.544 288.745,102.475 289.404,102.475 291.016 M341.828 289.092 C 341.811 289.431,342.280 290.134,342.871 290.655 L 343.945 291.602 343.116 290.625 C 342.660 290.088,342.191 289.385,342.073 289.063 C 341.889 288.561,341.854 288.565,341.828 289.092 M344.141 313.086 C 343.192 314.053,342.503 314.844,342.611 314.844 C 342.718 314.844,343.582 314.053,344.531 313.086 C 345.480 312.119,346.169 311.328,346.061 311.328 C 345.954 311.328,345.089 312.119,344.141 313.086 M300.195 316.406 C 302.120 318.340,303.783 319.922,303.890 319.922 C 303.997 319.922,302.511 318.340,300.586 316.406 C 298.661 314.473,296.999 312.891,296.891 312.891 C 296.784 312.891,298.271 314.473,300.195 316.406 M343.530 319.629 L 342.383 320.898 343.652 319.751 C 344.351 319.120,344.922 318.549,344.922 318.482 C 344.922 318.180,344.600 318.446,343.530 319.629 M187.961 321.595 C 187.415 322.252,187.629 323.633,188.276 323.633 C 188.990 323.633,189.624 322.493,189.332 321.733 C 189.038 320.965,188.526 320.914,187.961 321.595 M293.750 321.607 C 293.750 321.674,294.321 322.245,295.020 322.876 L 296.289 324.023 295.142 322.754 C 294.072 321.571,293.750 321.305,293.750 321.607 " stroke="none" fill="#31558f" fill-rule="evenodd"></path><path id="path3" d="M212.244 97.479 C 211.527 99.347,213.835 101.068,220.117 103.351 C 232.104 107.708,240.944 114.520,241.597 119.902 C 241.716 120.880,242.005 122.207,242.241 122.852 C 242.476 123.496,242.792 124.814,242.943 125.781 C 243.094 126.748,243.689 128.223,244.265 129.058 C 244.841 129.894,245.326 131.037,245.342 131.597 C 245.415 134.090,245.871 135.156,246.863 135.156 C 248.110 135.156,248.021 128.647,246.719 124.609 C 246.199 122.998,245.479 120.713,245.118 119.531 C 243.478 114.150,239.884 109.754,233.927 105.843 C 225.953 100.607,212.966 95.598,212.244 97.479 M328.584 114.967 C 327.845 115.753,327.734 116.317,327.734 119.289 C 327.734 121.169,327.539 123.072,327.301 123.518 C 326.509 124.997,326.206 126.537,326.652 126.813 C 326.894 126.963,326.962 126.893,326.811 126.648 C 326.627 126.350,326.897 126.322,327.710 126.555 C 328.349 126.739,329.275 126.813,329.768 126.721 C 330.261 126.629,330.443 126.659,330.173 126.787 C 329.903 126.915,329.786 127.187,329.912 127.390 C 330.212 127.877,331.460 126.265,332.420 124.148 C 334.858 118.776,331.825 111.517,328.584 114.967 M325.553 127.594 C 325.768 128.155,325.715 128.167,325.131 127.692 C 324.541 127.212,324.494 127.230,324.727 127.852 C 324.872 128.239,324.859 128.475,324.698 128.375 C 323.316 127.521,321.481 131.410,321.605 134.930 C 321.713 138.005,320.590 139.763,319.106 138.846 C 317.662 137.953,315.024 141.337,316.160 142.625 C 316.515 143.028,316.479 143.035,315.977 142.658 C 315.318 142.164,314.773 142.565,313.697 144.336 C 313.436 144.766,313.307 144.839,313.410 144.499 C 313.517 144.146,313.369 143.880,313.066 143.880 C 312.774 143.880,312.625 144.027,312.736 144.206 C 312.846 144.385,312.751 144.531,312.523 144.531 C 312.296 144.531,312.109 144.706,312.109 144.919 C 312.109 145.528,310.466 147.262,310.102 147.037 C 309.922 146.925,309.882 147.114,310.013 147.457 C 310.145 147.799,310.074 148.028,309.856 147.965 C 309.328 147.814,307.770 149.615,308.045 150.060 C 308.164 150.253,308.116 150.385,307.939 150.354 C 307.174 150.221,306.611 150.418,306.815 150.747 C 306.936 150.943,306.595 151.055,306.057 150.996 C 305.518 150.937,305.078 150.996,305.077 151.128 C 305.077 151.260,304.525 151.406,303.852 151.453 C 302.217 151.568,302.170 151.664,302.945 153.296 C 303.491 154.448,303.714 154.619,304.172 154.239 C 304.614 153.871,304.707 153.889,304.612 154.323 C 304.515 154.768,305.334 154.873,308.984 154.880 C 314.487 154.890,314.851 154.821,314.816 153.763 C 314.790 152.951,314.780 152.950,314.451 153.711 C 314.164 154.375,314.123 154.326,314.176 153.381 C 314.253 152.015,316.545 149.843,317.615 150.123 C 318.319 150.307,319.101 149.049,318.596 148.544 C 318.473 148.421,318.642 148.121,318.973 147.879 C 319.304 147.638,319.626 147.181,319.689 146.864 C 320.002 145.292,320.364 145.015,322.032 145.074 C 323.553 145.127,325.398 146.197,325.089 146.847 C 324.874 147.302,327.809 147.299,328.357 146.845 C 328.669 146.585,329.038 146.486,329.176 146.624 C 329.314 146.762,329.222 146.875,328.971 146.875 C 328.721 146.875,328.516 147.058,328.516 147.283 C 328.516 147.507,328.735 147.662,329.004 147.627 C 330.480 147.435,331.460 147.704,330.664 148.082 C 330.033 148.381,330.116 148.418,331.095 148.271 C 331.762 148.171,332.509 148.291,332.756 148.537 C 333.303 149.084,333.354 150.139,332.817 149.807 C 332.593 149.669,332.531 149.831,332.670 150.192 C 332.884 150.750,332.978 150.753,333.564 150.222 C 334.153 149.689,334.286 149.709,334.893 150.417 C 335.264 150.851,335.739 151.099,335.948 150.970 C 336.619 150.555,336.355 150.022,335.354 149.770 C 334.819 149.636,334.444 149.413,334.521 149.275 C 334.868 148.655,333.237 146.645,332.078 146.262 C 331.383 146.032,330.825 145.681,330.840 145.481 C 330.854 145.281,330.615 144.824,330.309 144.467 C 330.002 144.109,329.837 143.731,329.941 143.626 C 330.045 143.522,329.456 143.323,328.632 143.184 C 326.083 142.753,326.048 142.684,325.929 137.932 C 325.843 134.489,325.941 133.490,326.412 133.019 C 326.737 132.694,326.901 132.263,326.776 132.061 C 326.652 131.860,326.756 131.567,327.007 131.412 C 327.293 131.235,327.360 131.299,327.186 131.580 C 327.032 131.828,327.104 132.031,327.344 132.031 C 327.589 132.031,327.652 132.245,327.487 132.520 C 327.298 132.835,327.435 132.812,327.873 132.456 C 328.408 132.023,328.444 131.836,328.046 131.583 C 327.767 131.407,327.704 131.259,327.906 131.256 C 328.107 131.253,327.888 130.892,327.417 130.454 C 326.487 129.587,326.226 128.922,327.101 129.648 C 327.531 130.005,327.678 129.895,327.830 129.101 C 328.043 127.988,327.468 127.347,327.105 128.293 C 326.863 128.924,326.172 128.765,326.172 128.079 C 326.172 127.864,326.348 127.797,326.563 127.930 C 326.777 128.062,326.953 128.004,326.953 127.799 C 326.953 127.595,326.675 127.321,326.335 127.190 C 325.403 126.833,325.284 126.894,325.553 127.594 M330.557 145.660 C 330.354 145.791,330.236 146.207,330.294 146.584 C 330.353 146.961,330.237 147.168,330.037 147.045 C 329.838 146.922,329.776 146.657,329.899 146.457 C 330.023 146.257,329.894 146.080,329.613 146.063 C 329.217 146.039,329.212 145.988,329.592 145.834 C 329.862 145.725,329.985 145.478,329.865 145.284 C 329.745 145.090,329.934 145.041,330.286 145.176 C 330.637 145.311,330.759 145.529,330.557 145.660 M292.188 147.829 C 292.188 148.540,291.539 148.956,290.974 148.607 C 290.673 148.421,290.702 148.238,291.072 148.004 C 291.441 147.770,291.458 147.666,291.127 147.662 C 290.866 147.659,290.466 148.004,290.239 148.429 C 289.902 149.059,289.935 149.159,290.421 148.973 C 290.760 148.843,291.016 148.956,291.016 149.237 C 291.016 149.563,291.281 149.490,291.797 149.023 C 292.227 148.635,292.581 148.475,292.584 148.670 C 292.587 148.864,292.719 148.833,292.877 148.599 C 293.035 148.366,293.516 147.976,293.945 147.732 C 294.651 147.332,294.604 147.288,293.457 147.278 C 292.607 147.270,292.188 147.451,292.188 147.829 M294.986 149.039 C 295.009 150.175,295.179 150.755,295.460 150.651 C 295.701 150.561,295.867 150.327,295.828 150.130 C 295.789 149.933,296.087 149.747,296.489 149.716 C 297.009 149.677,297.152 149.842,296.982 150.285 C 296.810 150.733,296.888 150.819,297.260 150.590 C 297.597 150.381,297.683 150.421,297.509 150.704 C 297.361 150.942,297.000 151.046,296.707 150.933 C 296.413 150.820,296.040 150.943,295.878 151.206 C 295.711 151.475,295.745 151.583,295.954 151.453 C 296.159 151.327,296.582 151.385,296.894 151.582 C 297.263 151.816,297.295 151.943,296.985 151.947 C 296.712 151.951,296.610 152.217,296.746 152.572 C 296.914 153.009,297.067 153.056,297.266 152.734 C 297.421 152.483,297.660 152.292,297.798 152.310 C 298.863 152.453,299.479 152.257,299.479 151.775 C 299.479 151.462,299.303 151.315,299.087 151.448 C 298.867 151.584,298.789 151.447,298.908 151.136 C 299.137 150.541,298.287 149.500,297.893 149.893 C 297.763 150.024,297.656 149.925,297.656 149.674 C 297.656 149.424,297.305 149.219,296.875 149.219 C 296.445 149.219,296.094 149.033,296.094 148.805 C 296.094 148.578,296.270 148.500,296.484 148.633 C 297.079 149.000,296.951 148.569,296.261 147.879 C 295.260 146.878,294.948 147.162,294.986 149.039 M334.108 149.335 C 333.999 149.512,333.678 149.340,333.396 148.953 C 333.113 148.567,332.971 148.107,333.080 147.930 C 333.189 147.754,333.509 147.926,333.792 148.312 C 334.075 148.699,334.217 149.159,334.108 149.335 M186.230 148.713 C 186.714 148.806,187.505 148.806,187.988 148.713 C 188.472 148.620,188.076 148.544,187.109 148.544 C 186.143 148.544,185.747 148.620,186.230 148.713 M202.441 148.707 C 202.817 148.805,203.433 148.805,203.809 148.707 C 204.185 148.609,203.877 148.528,203.125 148.528 C 202.373 148.528,202.065 148.609,202.441 148.707 M289.170 150.413 C 289.031 150.945,288.746 151.142,288.328 150.998 C 287.881 150.843,287.918 150.952,288.454 151.366 C 288.871 151.689,289.398 151.950,289.625 151.947 C 289.853 151.944,289.775 151.771,289.453 151.563 C 289.083 151.323,289.042 151.182,289.343 151.178 C 289.626 151.174,289.718 150.908,289.570 150.522 C 289.402 150.085,289.470 149.964,289.777 150.154 C 290.029 150.310,290.234 150.251,290.234 150.023 C 290.234 149.279,289.385 149.590,289.170 150.413 M284.961 152.393 C 284.047 152.637,283.789 152.925,283.789 153.701 C 283.789 154.369,283.960 154.631,284.309 154.497 C 284.595 154.387,284.909 154.297,285.007 154.297 C 285.104 154.297,285.015 153.983,284.810 153.598 C 284.502 153.022,284.602 152.886,285.382 152.821 C 285.902 152.778,286.328 152.946,286.328 153.194 C 286.328 153.443,286.432 153.542,286.559 153.415 C 287.182 152.792,286.087 152.093,284.961 152.393 M293.148 153.542 C 293.006 153.771,292.984 154.052,293.099 154.167 C 293.379 154.446,294.141 153.953,294.141 153.493 C 294.141 152.993,293.466 153.027,293.148 153.542 M295.052 153.711 C 295.052 154.033,295.177 154.297,295.330 154.297 C 295.483 154.297,295.826 154.033,296.094 153.711 C 296.498 153.224,296.451 153.125,295.816 153.125 C 295.396 153.125,295.052 153.389,295.052 153.711 M213.424 173.242 C 213.425 175.391,213.491 176.220,213.570 175.085 C 213.649 173.949,213.648 172.192,213.568 171.178 C 213.488 170.165,213.423 171.094,213.424 173.242 M154.388 191.016 C 154.388 191.768,154.468 192.075,154.566 191.699 C 154.664 191.323,154.664 190.708,154.566 190.332 C 154.468 189.956,154.388 190.264,154.388 191.016 M187.402 214.355 C 191.108 214.419,197.173 214.419,200.879 214.355 C 204.585 214.291,201.553 214.238,194.141 214.238 C 186.729 214.238,183.696 214.291,187.402 214.355 M217.876 214.339 C 218.362 214.432,219.065 214.429,219.438 214.331 C 219.812 214.233,219.414 214.157,218.555 214.161 C 217.695 214.165,217.390 214.245,217.876 214.339 M164.453 215.357 C 164.453 215.424,165.024 215.995,165.723 216.626 L 166.992 217.773 165.845 216.504 C 164.775 215.321,164.453 215.055,164.453 215.357 M233.764 218.457 L 232.617 219.727 233.887 218.579 C 234.585 217.948,235.156 217.377,235.156 217.310 C 235.156 217.008,234.834 217.274,233.764 218.457 M239.672 241.681 C 239.201 242.908,241.768 245.435,245.362 247.285 C 246.141 247.685,248.300 249.532,250.160 251.387 C 253.364 254.585,254.688 255.284,254.688 253.781 C 254.688 252.430,247.657 245.773,243.120 242.828 C 240.474 241.110,239.957 240.938,239.672 241.681 M311.707 246.686 C 304.658 249.135,297.078 256.156,295.389 261.802 C 294.297 265.451,293.539 268.926,292.978 272.852 C 292.733 274.570,292.342 277.099,292.110 278.471 C 291.287 283.343,292.896 297.034,294.932 302.476 C 296.082 305.549,298.995 309.449,303.223 313.574 L 306.926 317.188 323.287 317.160 C 332.286 317.145,339.950 317.013,340.319 316.867 C 341.097 316.558,347.828 309.324,350.041 306.419 C 352.802 302.794,355.693 287.734,354.960 280.793 C 354.839 279.648,354.549 276.905,354.315 274.697 C 353.598 267.918,351.403 259.708,349.712 257.472 C 346.885 253.735,341.298 249.108,337.500 247.359 C 334.972 246.194,314.649 245.664,311.707 246.686 M330.275 278.287 C 332.071 280.082,331.817 282.801,329.758 283.827 C 329.260 284.076,328.582 284.664,328.252 285.136 C 325.647 288.854,322.253 289.230,319.252 286.133 C 318.108 284.951,316.991 283.984,316.771 283.984 C 314.628 283.984,313.829 280.251,315.595 278.486 L 316.737 277.344 323.035 277.344 C 329.171 277.344,329.356 277.368,330.275 278.287 M304.441 288.225 C 305.356 289.236,304.984 289.890,302.081 292.368 C 299.227 294.804,299.133 294.836,298.034 293.738 C 297.025 292.728,297.252 292.325,300.345 289.627 C 303.014 287.300,303.464 287.145,304.441 288.225 M346.484 289.779 C 349.605 292.290,350.157 294.161,347.766 294.124 C 346.153 294.098,341.604 289.894,341.964 288.761 C 342.495 287.089,343.393 287.291,346.484 289.779 M56.362 290.039 C 56.365 291.113,56.441 291.506,56.530 290.913 C 56.620 290.319,56.618 289.440,56.525 288.959 C 56.432 288.479,56.359 288.965,56.362 290.039 M58.703 294.428 C 59.730 294.509,61.312 294.508,62.219 294.426 C 63.125 294.344,62.285 294.278,60.352 294.279 C 58.418 294.280,57.676 294.347,58.703 294.428 M95.230 294.430 C 96.581 294.507,98.691 294.506,99.918 294.429 C 101.145 294.352,100.039 294.289,97.461 294.290 C 94.883 294.291,93.879 294.354,95.230 294.430 M326.827 299.316 C 328.049 300.674,328.195 301.093,327.739 301.945 C 327.202 302.948,326.161 302.950,324.893 301.953 C 323.619 300.951,322.900 300.968,321.452 302.039 C 319.381 303.570,317.894 301.585,319.542 299.489 C 320.701 298.016,325.552 297.901,326.827 299.316 M290.360 304.953 C 289.877 307.789,289.983 312.784,290.585 315.522 C 291.167 318.172,291.640 318.934,295.012 322.649 L 297.250 325.116 300.170 325.304 L 303.089 325.491 305.353 323.300 C 307.466 321.256,307.549 321.109,306.602 321.102 C 303.890 321.081,294.710 311.442,291.963 305.734 L 290.681 303.069 290.360 304.953 M355.347 305.526 C 354.085 308.830,343.987 320.297,341.781 320.932 L 340.538 321.289 342.964 323.340 C 349.602 328.952,357.592 320.849,356.926 309.180 C 356.645 304.238,356.217 303.249,355.347 305.526 " stroke="none" fill="#507eb2" fill-rule="evenodd"></path><path id="path4" d="M33.848 125.293 C 33.748 125.454,35.276 125.539,37.243 125.482 C 43.704 125.294,44.421 125.142,39.183 125.070 C 36.349 125.032,33.948 125.132,33.848 125.293 M106.550 125.674 C 107.252 125.761,108.307 125.759,108.894 125.670 C 109.481 125.581,108.906 125.509,107.617 125.512 C 106.328 125.514,105.848 125.587,106.550 125.674 M45.063 129.688 C 45.063 131.729,45.129 132.563,45.209 131.543 C 45.289 130.522,45.289 128.853,45.209 127.832 C 45.129 126.812,45.063 127.646,45.063 129.688 M37.221 133.711 C 37.697 134.205,38.158 134.558,38.246 134.495 C 38.474 134.331,37.053 132.813,36.672 132.813 C 36.498 132.813,36.745 133.217,37.221 133.711 M99.335 133.690 C 99.114 134.174,98.294 135.407,97.513 136.429 C 95.805 138.666,95.601 139.400,97.272 137.297 C 98.824 135.344,100.133 133.206,99.913 132.986 C 99.816 132.889,99.556 133.205,99.335 133.690 M106.036 134.473 L 104.492 136.133 106.055 134.689 C 107.388 133.457,107.932 133.224,109.766 133.101 L 111.914 132.957 109.747 132.885 C 107.664 132.815,107.521 132.877,106.036 134.473 M45.935 134.691 C 46.345 135.402,47.100 136.369,47.613 136.840 C 48.163 137.344,47.945 136.893,47.082 135.742 C 45.238 133.284,44.999 133.065,45.935 134.691 M40.430 138.281 C 41.488 139.355,42.441 140.234,42.549 140.234 C 42.656 140.234,41.878 139.355,40.820 138.281 C 39.762 137.207,38.809 136.328,38.701 136.328 C 38.594 136.328,39.372 137.207,40.430 138.281 M49.376 140.326 C 49.405 141.614,49.569 141.999,50.105 142.047 C 50.548 142.086,50.591 142.043,50.224 141.928 C 49.889 141.822,49.587 141.109,49.495 140.207 L 49.337 138.666 49.376 140.326 M104.054 142.969 C 104.054 145.439,104.117 146.450,104.195 145.215 C 104.272 143.979,104.272 141.958,104.195 140.723 C 104.117 139.487,104.054 140.498,104.054 142.969 M71.598 140.134 C 73.057 140.209,75.343 140.209,76.676 140.133 C 78.010 140.057,76.816 139.995,74.023 139.996 C 71.230 139.996,70.139 140.058,71.598 140.134 M95.620 141.016 C 95.525 141.660,95.593 142.188,95.771 142.188 C 95.948 142.188,96.094 141.660,96.094 141.016 C 96.094 140.371,96.026 139.844,95.943 139.844 C 95.860 139.844,95.714 140.371,95.620 141.016 M80.572 140.515 C 81.166 140.604,82.044 140.602,82.525 140.509 C 83.005 140.417,82.520 140.343,81.445 140.346 C 80.371 140.349,79.978 140.425,80.572 140.515 M42.699 142.773 C 42.701 144.063,42.774 144.543,42.861 143.841 C 42.948 143.139,42.946 142.084,42.857 141.497 C 42.768 140.910,42.697 141.484,42.699 142.773 M56.353 142.077 C 56.947 142.167,57.826 142.165,58.306 142.072 C 58.787 141.979,58.301 141.906,57.227 141.909 C 56.152 141.912,55.759 141.987,56.353 142.077 M41.186 146.582 L 40.039 147.852 41.309 146.704 C 42.007 146.073,42.578 145.502,42.578 145.435 C 42.578 145.133,42.256 145.399,41.186 146.582 M104.688 148.580 C 104.688 148.687,105.215 149.150,105.859 149.609 C 106.504 150.068,107.031 150.356,107.031 150.249 C 107.031 150.141,106.504 149.678,105.859 149.219 C 105.215 148.760,104.688 148.472,104.688 148.580 M110.645 154.492 C 110.650 155.352,110.730 155.657,110.823 155.171 C 110.917 154.685,110.913 153.982,110.815 153.609 C 110.717 153.235,110.641 153.633,110.645 154.492 M32.051 157.550 L 29.531 160.352 31.786 158.203 C 33.635 156.442,35.181 154.582,34.682 154.718 C 34.620 154.735,33.436 156.009,32.051 157.550 M116.083 160.352 C 116.442 160.781,116.809 161.748,116.899 162.500 L 117.062 163.867 117.125 162.463 C 117.171 161.437,116.951 160.858,116.309 160.314 C 115.437 159.576,115.435 159.576,116.083 160.352 M28.342 161.024 C 28.008 161.502,27.749 162.249,27.768 162.685 C 27.793 163.277,27.885 163.199,28.131 162.377 C 28.313 161.773,28.671 161.026,28.927 160.717 C 29.183 160.409,29.293 160.156,29.172 160.156 C 29.050 160.156,28.677 160.547,28.342 161.024 M121.251 174.219 C 121.251 177.549,121.311 178.911,121.384 177.246 C 121.457 175.581,121.457 172.856,121.384 171.191 C 121.311 169.526,121.251 170.889,121.251 174.219 M169.605 173.350 L 169.531 175.802 175.293 175.694 L 181.055 175.586 181.101 174.023 L 181.148 172.461 180.980 173.926 L 180.812 175.391 175.387 175.391 L 169.961 175.391 169.820 173.145 L 169.679 170.898 169.605 173.350 M227.734 173.228 L 227.734 175.362 223.926 175.490 L 220.117 175.618 224.121 175.699 L 228.125 175.781 228.125 173.438 C 228.125 172.148,228.037 171.094,227.930 171.094 C 227.822 171.094,227.734 172.054,227.734 173.228 M24.299 178.125 C 24.249 179.673,24.433 180.092,25.842 181.641 L 27.442 183.398 26.051 181.606 C 25.060 180.329,24.617 179.319,24.508 178.090 L 24.355 176.367 24.299 178.125 M119.190 182.218 C 118.304 183.180,117.578 184.088,117.578 184.236 C 117.578 184.384,117.636 184.432,117.707 184.342 C 117.778 184.253,118.591 183.345,119.514 182.324 C 120.438 181.304,121.105 180.469,120.998 180.469 C 120.891 180.469,120.077 181.256,119.190 182.218 M40.575 182.324 C 40.107 182.921,40.114 182.949,40.633 182.546 C 40.959 182.293,42.014 182.016,42.976 181.931 L 44.727 181.777 42.919 181.709 C 41.604 181.659,40.965 181.827,40.575 182.324 M51.781 181.923 C 54.320 182.074,55.890 183.488,55.284 185.079 C 55.077 185.624,55.123 185.652,55.543 185.235 C 56.867 183.920,54.652 181.839,51.898 181.809 L 49.414 181.783 51.781 181.923 M90.783 182.520 C 90.045 183.391,90.046 183.393,90.820 182.766 C 91.250 182.418,91.865 182.036,92.188 181.918 C 92.685 181.735,92.679 181.698,92.150 181.671 C 91.808 181.655,91.192 182.036,90.783 182.520 M98.242 181.924 C 103.661 182.035,103.719 182.046,104.633 183.108 C 105.140 183.697,105.421 183.916,105.257 183.594 C 104.291 181.693,104.079 181.636,98.279 181.726 L 92.773 181.812 98.242 181.924 M39.714 183.464 C 39.267 183.910,39.427 184.975,40.061 185.765 C 40.639 186.487,40.647 186.479,40.221 185.605 C 39.975 185.099,39.861 184.352,39.967 183.944 C 40.175 183.150,40.124 183.053,39.714 183.464 M54.313 186.504 C 54.050 186.821,52.954 187.133,51.824 187.213 L 49.805 187.355 51.795 187.428 C 53.349 187.484,53.940 187.329,54.492 186.719 C 54.881 186.289,55.106 185.938,54.991 185.938 C 54.877 185.938,54.572 186.192,54.313 186.504 M104.082 186.681 C 103.878 186.875,103.359 187.118,102.930 187.221 C 102.189 187.400,102.191 187.412,102.980 187.455 C 103.437 187.480,104.029 187.236,104.297 186.914 C 104.827 186.275,104.679 186.114,104.082 186.681 M112.966 189.316 L 111.133 191.131 113.086 189.444 C 114.160 188.517,115.112 187.700,115.202 187.629 C 115.291 187.558,115.237 187.500,115.081 187.500 C 114.926 187.500,113.974 188.317,112.966 189.316 M35.063 192.854 C 35.549 192.948,36.252 192.944,36.626 192.847 C 36.999 192.749,36.602 192.672,35.742 192.677 C 34.883 192.681,34.577 192.761,35.063 192.854 M326.942 192.861 C 328.608 192.944,330.003 193.208,330.194 193.476 C 330.430 193.808,330.482 193.773,330.369 193.359 C 330.246 192.905,329.519 192.767,327.117 192.744 L 324.023 192.715 326.942 192.861 M363.142 192.878 C 363.040 193.043,363.689 193.122,364.584 193.053 C 367.212 192.850,367.532 192.672,365.355 192.623 C 364.240 192.599,363.244 192.713,363.142 192.878 M303.946 193.979 C 303.216 194.497,302.811 194.922,303.045 194.922 C 303.280 194.922,303.965 194.488,304.568 193.958 C 305.949 192.743,305.672 192.753,303.946 193.979 M309.314 194.922 L 309.448 196.838 306.775 196.954 C 304.251 197.064,302.702 198.284,304.600 198.669 C 304.874 198.724,304.917 198.680,304.697 198.571 C 303.413 197.934,304.445 197.295,306.934 197.186 L 309.570 197.070 309.693 195.357 C 309.761 194.415,309.673 193.500,309.498 193.325 C 309.323 193.150,309.240 193.869,309.314 194.922 M323.555 194.922 C 323.555 196.104,323.628 196.587,323.717 195.996 C 323.807 195.405,323.807 194.438,323.717 193.848 C 323.628 193.257,323.555 193.740,323.555 194.922 M346.162 194.804 L 346.094 196.834 344.043 196.978 L 341.992 197.121 344.055 197.193 C 346.417 197.276,346.611 197.050,346.382 194.478 C 346.230 192.776,346.230 192.776,346.162 194.804 M106.030 194.629 L 104.883 195.898 106.248 194.727 C 106.999 194.082,107.687 193.511,107.778 193.457 C 107.869 193.403,107.771 193.359,107.560 193.359 C 107.350 193.359,106.661 193.931,106.030 194.629 M341.518 195.117 C 341.521 196.191,341.597 196.584,341.687 195.991 C 341.776 195.397,341.774 194.518,341.681 194.038 C 341.589 193.557,341.515 194.043,341.518 195.117 M41.016 196.216 C 41.016 196.283,41.587 196.854,42.285 197.486 L 43.555 198.633 42.407 197.363 C 41.338 196.180,41.016 195.914,41.016 196.216 M300.866 201.026 C 300.792 205.508,300.867 206.222,301.465 206.690 C 302.067 207.163,302.092 207.154,301.672 206.615 C 301.371 206.228,301.151 204.152,301.074 200.951 L 300.951 195.898 300.866 201.026 M325.694 197.162 C 326.613 197.244,328.019 197.243,328.819 197.159 C 329.619 197.075,328.867 197.007,327.148 197.009 C 325.430 197.010,324.775 197.079,325.694 197.162 M367.968 197.161 C 372.495 197.285,374.519 198.024,371.777 198.552 C 371.042 198.694,371.079 198.730,372.000 198.775 C 372.931 198.820,373.082 198.692,372.976 197.949 C 372.855 197.094,372.725 197.070,368.066 197.051 L 363.280 197.033 367.968 197.161 M374.369 201.563 C 374.369 204.248,374.432 205.347,374.508 204.004 C 374.584 202.661,374.584 200.464,374.508 199.121 C 374.432 197.778,374.369 198.877,374.369 201.563 M367.094 198.714 C 367.580 198.807,368.283 198.804,368.657 198.706 C 369.030 198.608,368.633 198.532,367.773 198.536 C 366.914 198.540,366.608 198.620,367.094 198.714 M99.316 199.108 C 99.907 199.197,100.874 199.197,101.465 199.108 C 102.056 199.018,101.572 198.945,100.391 198.945 C 99.209 198.945,98.726 199.018,99.316 199.108 M94.510 201.855 L 93.164 203.320 94.629 201.974 C 95.992 200.721,96.273 200.391,95.975 200.391 C 95.910 200.391,95.251 201.050,94.510 201.855 M52.930 204.297 C 53.988 205.371,54.941 206.250,55.049 206.250 C 55.156 206.250,54.378 205.371,53.320 204.297 C 52.262 203.223,51.309 202.344,51.201 202.344 C 51.094 202.344,51.872 203.223,52.930 204.297 M59.180 203.430 C 58.965 203.591,58.263 204.336,57.620 205.084 L 56.450 206.445 58.027 204.980 C 60.415 202.761,62.104 202.886,64.648 205.469 C 65.707 206.543,66.842 207.411,67.173 207.397 C 67.588 207.380,67.533 207.271,66.992 207.044 C 66.563 206.863,65.427 205.907,64.469 204.920 C 62.731 203.128,60.441 202.483,59.180 203.430 M69.712 205.176 L 67.773 207.227 69.914 205.273 C 71.091 204.199,72.131 203.276,72.225 203.223 C 72.319 203.169,72.228 203.125,72.023 203.125 C 71.818 203.125,70.778 204.048,69.712 205.176 M84.552 204.993 C 82.540 206.874,83.006 206.612,85.658 204.373 C 86.471 203.687,86.999 203.131,86.830 203.137 C 86.661 203.144,85.636 203.979,84.552 204.993 M78.906 204.810 C 78.906 204.877,79.478 205.448,80.176 206.079 L 81.445 207.227 80.298 205.957 C 79.229 204.774,78.906 204.508,78.906 204.810 M370.305 210.449 L 366.602 214.258 370.410 210.555 C 373.948 207.115,374.396 206.641,374.113 206.641 C 374.055 206.641,372.342 208.354,370.305 210.449 M309.333 208.789 C 307.291 210.968,306.827 210.979,304.930 208.893 L 303.414 207.227 304.782 208.984 C 306.596 211.316,307.249 211.346,309.361 209.194 C 312.003 206.502,314.611 206.561,317.383 209.375 C 318.441 210.449,319.432 211.328,319.585 211.328 C 319.738 211.328,318.850 210.361,317.611 209.180 C 314.449 206.163,311.907 206.043,309.333 208.789 M332.439 208.887 C 331.413 209.907,330.155 211.058,329.643 211.443 C 328.730 212.130,328.735 212.130,329.883 211.487 C 330.527 211.126,331.705 210.116,332.499 209.244 C 333.677 207.950,334.290 207.609,335.820 207.397 L 337.695 207.136 336.000 207.083 C 334.469 207.036,334.123 207.212,332.439 208.887 M351.456 207.313 C 352.150 207.399,353.380 207.401,354.191 207.316 C 355.001 207.232,354.434 207.161,352.930 207.159 C 351.426 207.158,350.763 207.227,351.456 207.313 M348.224 209.082 L 346.680 210.742 348.340 209.198 C 349.253 208.349,350.000 207.602,350.000 207.538 C 350.000 207.242,349.660 207.538,348.224 209.082 M341.193 210.449 C 342.934 212.321,345.120 212.754,346.125 211.426 C 346.565 210.844,346.560 210.815,346.094 211.230 C 344.975 212.229,342.909 211.814,341.227 210.254 L 339.648 208.789 341.193 210.449 M360.352 211.211 C 360.781 211.312,361.721 212.039,362.439 212.826 L 363.746 214.258 362.504 212.598 C 361.668 211.480,360.986 210.952,360.416 210.983 C 359.628 211.025,359.623 211.041,360.352 211.211 M320.926 211.705 C 321.371 211.885,322.034 212.489,322.400 213.047 C 322.766 213.606,323.222 214.063,323.413 214.063 C 323.605 214.063,323.217 213.447,322.551 212.695 C 321.885 211.943,321.065 211.339,320.729 211.353 C 320.310 211.370,320.373 211.481,320.926 211.705 M75.040 246.582 C 75.133 246.636,76.085 247.471,77.156 248.438 L 79.102 250.195 77.360 248.340 C 76.402 247.319,75.450 246.484,75.244 246.484 C 75.038 246.484,74.946 246.528,75.040 246.582 M70.403 252.344 C 70.403 253.096,70.484 253.403,70.582 253.027 C 70.680 252.651,70.680 252.036,70.582 251.660 C 70.484 251.284,70.403 251.592,70.403 252.344 M71.582 253.785 C 71.958 253.883,72.573 253.883,72.949 253.785 C 73.325 253.687,73.018 253.606,72.266 253.606 C 71.514 253.606,71.206 253.687,71.582 253.785 M82.031 260.649 C 82.176 265.301,82.356 266.955,82.725 267.029 C 82.999 267.084,83.042 267.040,82.822 266.930 C 82.575 266.808,82.422 264.440,82.422 260.733 C 82.422 257.433,82.290 254.652,82.129 254.552 C 81.968 254.452,81.924 257.195,82.031 260.649 M74.999 261.212 C 74.892 264.478,74.942 267.013,75.109 266.846 C 75.276 266.678,75.363 264.005,75.303 260.907 L 75.193 255.273 74.999 261.212 M86.235 267.854 C 86.721 267.948,87.424 267.944,87.798 267.847 C 88.171 267.749,87.773 267.672,86.914 267.677 C 86.055 267.681,85.749 267.761,86.235 267.854 M90.658 268.500 C 90.747 268.577,91.348 268.758,91.992 268.902 C 92.848 269.094,93.006 269.057,92.578 268.768 C 92.051 268.411,90.266 268.162,90.658 268.500 M56.435 274.053 L 54.492 275.841 56.543 274.188 C 58.383 272.704,58.826 272.266,58.485 272.266 C 58.426 272.266,57.503 273.070,56.435 274.053 M101.172 273.560 C 101.172 273.627,101.743 274.198,102.441 274.829 L 103.711 275.977 102.564 274.707 C 101.494 273.524,101.172 273.258,101.172 273.560 M50.958 281.286 C 50.614 281.951,50.402 282.564,50.487 282.649 C 50.572 282.733,50.934 282.190,51.291 281.440 C 52.094 279.756,51.816 279.627,50.958 281.286 M108.398 282.422 C 108.732 283.066,109.092 283.594,109.200 283.594 C 109.307 283.594,109.122 283.066,108.789 282.422 C 108.456 281.777,108.095 281.250,107.988 281.250 C 107.880 281.250,108.065 281.777,108.398 282.422 M58.594 283.462 C 62.820 283.747,67.491 283.765,67.324 283.496 C 67.223 283.335,64.823 283.235,61.989 283.274 C 59.155 283.312,57.627 283.397,58.594 283.462 M90.626 284.616 C 89.766 285.393,89.063 286.181,89.063 286.368 C 89.063 286.555,89.664 286.051,90.398 285.248 L 91.734 283.789 97.137 283.572 L 102.539 283.355 97.364 283.279 L 92.190 283.203 90.626 284.616 M54.543 285.104 C 53.302 286.375,53.093 286.825,53.229 287.936 L 53.391 289.258 53.453 287.838 C 53.502 286.719,53.846 286.120,55.079 285.006 C 55.939 284.229,56.502 283.594,56.330 283.594 C 56.159 283.594,55.354 284.274,54.543 285.104 M104.123 285.181 C 104.971 286.161,105.743 286.902,105.840 286.828 C 105.937 286.753,105.244 285.951,104.299 285.045 L 102.583 283.398 104.123 285.181 M68.835 284.969 C 69.859 286.107,69.902 286.334,70.020 291.219 L 70.143 296.289 70.228 291.186 L 70.313 286.084 69.043 284.936 L 67.773 283.789 68.835 284.969 M110.315 292.578 C 110.315 296.123,110.374 297.573,110.447 295.801 C 110.519 294.028,110.519 291.128,110.447 289.355 C 110.374 287.583,110.315 289.033,110.315 292.578 M48.591 293.750 C 48.591 296.650,48.652 297.837,48.727 296.387 C 48.802 294.937,48.802 292.563,48.727 291.113 C 48.652 289.663,48.591 290.850,48.591 293.750 M104.721 296.243 L 103.778 297.461 104.896 296.399 C 105.510 295.814,105.935 295.266,105.839 295.181 C 105.743 295.095,105.240 295.573,104.721 296.243 M68.359 297.095 C 67.416 297.452,67.242 297.619,67.796 297.634 C 68.239 297.646,68.942 297.398,69.359 297.083 C 70.249 296.409,70.169 296.410,68.359 297.095 M95.393 297.555 C 96.834 297.630,99.295 297.630,100.862 297.556 C 102.429 297.482,101.250 297.420,98.242 297.420 C 95.234 297.419,93.952 297.480,95.393 297.555 M118.928 299.116 C 124.214 299.202,126.429 299.374,126.672 299.716 C 126.919 300.063,126.969 300.034,126.853 299.609 C 126.718 299.115,125.511 299.021,119.108 299.010 L 111.523 298.996 118.928 299.116 M126.593 303.537 C 126.576 303.870,125.938 304.749,125.175 305.489 C 123.873 306.751,121.482 310.445,122.291 309.945 C 122.495 309.819,122.943 309.156,123.287 308.471 C 123.632 307.787,124.617 306.496,125.478 305.604 C 126.339 304.711,126.949 303.744,126.834 303.455 C 126.677 303.062,126.616 303.082,126.593 303.537 M33.921 306.445 C 36.140 309.405,36.419 309.699,35.550 308.160 C 35.112 307.385,34.368 306.418,33.898 306.012 C 33.044 305.275,33.044 305.276,33.921 306.445 M117.188 310.938 C 115.836 311.222,115.834 311.226,116.992 311.271 C 117.637 311.296,118.428 311.146,118.750 310.938 C 119.400 310.517,119.184 310.517,117.188 310.938 M58.473 312.011 L 70.266 312.121 70.419 313.580 L 70.572 315.039 70.637 313.379 L 70.703 311.719 58.691 311.810 L 46.680 311.902 58.473 312.011 M88.281 312.012 C 88.281 312.173,92.016 312.260,96.582 312.205 C 112.088 312.019,113.509 311.886,100.879 311.802 C 93.950 311.756,88.281 311.851,88.281 312.012 M84.180 317.969 C 83.846 318.613,83.662 319.141,83.769 319.141 C 83.876 319.141,84.237 318.613,84.570 317.969 C 84.904 317.324,85.088 316.797,84.981 316.797 C 84.874 316.797,84.513 317.324,84.180 317.969 M78.613 322.155 C 79.204 322.244,80.171 322.244,80.762 322.155 C 81.353 322.065,80.869 321.992,79.688 321.992 C 78.506 321.992,78.022 322.065,78.613 322.155 " stroke="none" fill="#6a333e" fill-rule="evenodd"></path></g></svg>